<?xml version="1.0" encoding="UTF-8" standalone="no"?>
<!-- Created with Inkscape (http://www.inkscape.org/) -->

<svg
   width="210mm"
   height="297mm"
   viewBox="0 0 210 297"
   version="1.1"
   id="svg5"
   inkscape:version="1.2.1 (9c6d41e410, 2022-07-14)"
   sodipodi:docname="scrolls.svg"
   xmlns:inkscape="http://www.inkscape.org/namespaces/inkscape"
   xmlns:sodipodi="http://sodipodi.sourceforge.net/DTD/sodipodi-0.dtd"
   xmlns="http://www.w3.org/2000/svg"
   xmlns:svg="http://www.w3.org/2000/svg">
  <sodipodi:namedview
     id="namedview7"
     pagecolor="#ffffff"
     bordercolor="#000000"
     borderopacity="0.25"
     inkscape:showpageshadow="2"
     inkscape:pageopacity="0.0"
     inkscape:pagecheckerboard="0"
     inkscape:deskcolor="#d1d1d1"
     inkscape:document-units="mm"
     showgrid="false"
     inkscape:zoom="1"
     inkscape:cx="219.5"
     inkscape:cy="-118"
     inkscape:window-width="1920"
     inkscape:window-height="1017"
     inkscape:window-x="1912"
     inkscape:window-y="-8"
     inkscape:window-maximized="1"
     inkscape:current-layer="layer1" />
  <defs
     id="defs2" />
  <g
     inkscape:label="Calque 1"
     inkscape:groupmode="layer"
     id="layer1">
    <path
       style="fill:#806600;fill-opacity:1;stroke:#000000;stroke-width:1.514;stroke-linecap:round;stroke-dasharray:none;stroke-opacity:1"
       d="m 6.6145834,-26.127604 -18.6631294,3.2692 -0.327385,28.0398081 H 0"
       id="path1231"
       sodipodi:nodetypes="cccc"
       inkscape:export-filename="path1231.png"
       inkscape:export-xdpi="96"
       inkscape:export-ydpi="96" />
    <path
       style="fill:#806600;fill-opacity:1;stroke:#000000;stroke-width:1.514;stroke-linecap:round;stroke-dasharray:none;stroke-opacity:1"
       id="path1229-8"
       sodipodi:type="arc"
       sodipodi:cx="-12.048546"
       sodipodi:cy="-11.193386"
       sodipodi:rx="9.1670647"
       sodipodi:ry="16.359596"
       sodipodi:start="2.9894418"
       sodipodi:end="2.9871641"
       sodipodi:open="true"
       sodipodi:arc-type="arc"
       d="m -21.109707,-8.7138523 a 9.1670647,16.359596 0 0 1 7.6666,-18.6487187 9.1670647,16.359596 0 0 1 10.4541339,13.671237 A 9.1670647,16.359596 0 0 1 -10.643667,4.9729545 9.1670647,16.359596 0 0 1 -21.106519,-8.677027" />
    <path
       style="color:#000000;fill:#000000;fill-rule:evenodd;-inkscape-stroke:none"
       d="m -19.515625,-45.513672 c -2.210135,-0.137797 -4.476326,0.168468 -6.675781,0.988281 -7.940614,2.959743 -12.453885,11.999541 -9.398438,20.054688 2.730231,7.19777 10.963058,11.283917 18.275391,8.451172 6.454801,-2.500544 10.1135149,-9.926776 7.501953,-16.496094 -2.270615,-5.711675 -8.892753,-8.943334 -14.71875,-6.550781 -4.96835,2.040344 -7.774465,7.859226 -5.597656,12.941406 1.809564,4.224777 6.830483,6.606916 11.167969,4.640625 3.480918,-1.577988 5.440682,-5.809362 3.675781,-9.400391 -1.345098,-2.73686 -4.798379,-4.280801 -7.638672,-2.699218 -0.996742,0.555023 -1.757732,1.483833 -2.117188,2.550781 -0.359455,1.066948 -0.293108,2.309985 0.427735,3.347656 0.437703,0.630085 1.11597,1.094099 1.886719,1.277344 0.770748,0.183245 1.709476,0.01719 2.322265,-0.703125 0.377338,-0.443552 0.446409,-0.912264 0.373047,-1.443359 -0.105037,-0.451698 -0.93186,-0.994083 -1.503906,-0.996094 0.467861,0.432853 0.790916,2.263602 -0.751968,2.104034 -0.444068,-0.04593 -0.999028,-0.684483 -1.222642,-1.00638 -0.462097,-0.665201 -0.505959,-1.415784 -0.257812,-2.152344 0.248147,-0.736559 0.812153,-1.420803 1.498047,-1.802734 2.098377,-1.168456 4.747856,0.01852 5.779297,2.117187 1.402652,2.853965 -0.195429,6.299139 -3.025391,7.582032 -3.604113,1.633835 -7.850259,-0.380952 -9.376953,-3.945313 -1.863847,-4.351509 0.570321,-9.401777 4.871094,-11.167969 5.097343,-2.093318 10.955972,0.764209 12.958984,5.802735 2.3225099,5.842215 -0.961074,12.508045 -6.738281,14.746094 -6.586452,2.551543 -14.059417,-1.157276 -16.53125,-7.673829 -2.780483,-7.33025 1.354937,-15.611697 8.611328,-18.316406 8.073734,-3.009361 17.1646636,1.552227 20.1015624,9.548828 l 1.2617187,-0.464843 C -6.7492637,-40.692205 -12.885219,-45.10028 -19.515625,-45.513672 Z"
       id="path1145"
       transform="matrix(0.63503905,0,0,1.1257799,1.5600351,22.950922)"
       sodipodi:nodetypes="ssssssssssssssccssssssssssssccs" />
    <path
       style="fill:#fff094;fill-opacity:1;stroke:#000000;stroke-width:1.514;stroke-linecap:round;stroke-opacity:1"
       d="M 0,0 C 0.62182234,-10.162187 -3.074651,-27.671753 -12.037115,-27.536402 H 197.96288 C 206.92535,-27.671753 210.62182,-10.162187 210,0"
       id="path245"
       sodipodi:nodetypes="cccc" />
    <path
       style="fill:#806600;fill-opacity:1;stroke:#000000;stroke-width:1.514;stroke-linecap:round;stroke-dasharray:none;stroke-opacity:1"
       id="path1229-8-9"
       sodipodi:type="arc"
       sodipodi:cx="11.412399"
       sodipodi:cy="24.701773"
       sodipodi:rx="9.1670647"
       sodipodi:ry="16.359596"
       sodipodi:start="2.9894418"
       sodipodi:end="2.9871641"
       sodipodi:open="true"
       sodipodi:arc-type="arc"
       d="M 2.3512383,27.181307 A 9.1670647,16.359596 0 0 1 10.017838,8.5325873 9.1670647,16.359596 0 0 1 20.471972,22.203825 9.1670647,16.359596 0 0 1 12.817278,40.868113 9.1670647,16.359596 0 0 1 2.3544265,27.218132"
       inkscape:export-filename="path1229-8.png"
       inkscape:export-xdpi="96"
       inkscape:export-ydpi="96" />
    <path
       style="color:#000000;fill:#000000;fill-rule:evenodd;stroke-width:0.845526;-inkscape-stroke:none"
       d="M 8.3884144,8.7202908 C 3.3458144,12.05231 0.47971112,22.229133 2.4200393,31.297455 4.1538426,39.40056 9.3820092,44.000662 14.025626,40.811615 18.124677,37.996553 20.448103,29.63625 18.789659,22.240644 17.34773,15.810555 13.142414,12.172418 9.4426783,14.865906 6.287582,17.162885 4.5055894,23.713665 5.8879482,29.435081 c 1.1491438,4.756169 4.3376238,7.437933 7.0920968,5.224322 2.210518,-1.776467 3.455045,-6.540063 2.334264,-10.582771 -0.85419,-3.081102 -3.047158,-4.81924 -4.850855,-3.038725 -0.63297,0.624834 -1.1162284,1.670469 -1.344497,2.871618 -0.228268,1.201148 -0.186135,2.600535 0.2716284,3.768724 0.2779585,0.709337 0.7086846,1.231714 1.1981406,1.438008 0.489455,0.206293 1.085584,0.01935 1.474729,-0.791564 0.239624,-0.499342 0.283487,-1.027009 0.236899,-1.624905 -0.0667,-0.508512 -0.591767,-1.119118 -0.955039,-1.121382 0.29711,0.487297 0.502263,2.548317 -0.477529,2.368679 -0.282001,-0.05171 -0.634422,-0.770577 -0.776425,-1.132962 -0.2934501,-0.74887 -0.3213042,-1.593862 -0.1637212,-2.423066 0.1575832,-0.829203 0.5157492,-1.599512 0.9513182,-2.029482 1.332552,-1.315424 3.015074,0.02085 3.670079,2.383487 0.890739,3.212936 -0.124105,7.091444 -1.921241,8.535699 C 10.339044,35.1201 7.642575,32.851893 6.6730647,28.839207 5.4894491,23.940366 7.0352408,18.254875 9.7663996,16.266532 13.003411,13.909917 16.72387,17.126863 17.995861,22.799134 19.470745,29.376183 17.385541,36.88044 13.716789,39.399991 9.5341347,42.272466 4.7885101,38.097153 3.2187996,30.760948 1.4530844,22.5087 4.0792376,13.185613 8.6873292,10.140706 10.681261,8.8231679 12.772888,8.7946947 14.694356,9.7814216 12.498295,7.0925493 11.090333,6.9793206 8.3884144,8.7202908 Z"
       id="path1145-8"
       sodipodi:nodetypes="cssssssssssssccsssssssssssscc" />
  </g>
</svg>
